# xmcd
#
# Track frame offsets:
#	150
#	27975
#	49408
#	79378
#	93551
#	120746
#	149465
#	169708
#	201419
#	233617
#	256692
#
# Disc length: 3723 seconds
#
# Revision: 1
# Processed by: cddbd v1.5.2PL0 Copyright (c) Steve Scherf et al.
# Submitted via: audiograbber 1.83.01
#
DISCID=980e890b
DTITLE=Trio Mundo - Rides Again
DYEAR=2004
DGENRE=Jazz
TTITLE0=Mundo Rides Again
TTITLE1=Cameroun
TTITLE2=Sweet Rhythm
TTITLE3=Corazon
TTITLE4=What You Want
TTITLE5=Guille
TTITLE6=Pinarena
TTITLE7=Africano
TTITLE8=Dream Maurice
TTITLE9=Hot Ice
TTITLE10=Shanti
EXTD=YEAR: 2004
EXTT0=
EXTT1=
EXTT2=
EXTT3=
EXTT4=
EXTT5=
EXTT6=
EXTT7=
EXTT8=
EXTT9=
EXTT10=
PLAYORDER=
